<?xml version="1.0" encoding="utf-8"?>
<!-- Generator: Adobe Illustrator 16.0.0, SVG Export Plug-In . SVG Version: 6.00 Build 0)  -->
<!DOCTYPE svg PUBLIC "-//W3C//DTD SVG 1.1//EN" "http://www.w3.org/Graphics/SVG/1.1/DTD/svg11.dtd">
<svg version="1.1" id="Layer_1" xmlns="http://www.w3.org/2000/svg" xmlns:xlink="http://www.w3.org/1999/xlink" x="0px" y="0px"
	 width="110px" height="110px" viewBox="0 0 110 110" enable-background="new 0 0 110 110" xml:space="preserve">
<rect fill="#EFEFEF" width="110" height="110"/>
<g>
	<path fill="#231F20" d="M23.082,76.447c-3.316,0-9.412-1.87-9.412-21.07c0-19.198,6.096-20.749,9.412-20.749
		c1.551,0,2.513,0.374,2.513,0.374v2.354c-0.428-0.161-1.016-0.321-1.604-0.321c-2.888,0-6.952,2.514-6.952,18.342
		c0,16.15,4.225,18.664,7.113,18.664c0.534,0,0.963-0.054,1.443-0.161v2.247C25.595,76.127,24.633,76.447,23.082,76.447
		L23.082,76.447z"/>
	<path fill="#231F20" d="M36.664,37.302v21.711c1.069-0.374,5.294-3.476,5.294-12.032C41.958,38.639,38.964,37.302,36.664,37.302
		L36.664,37.302z M39.124,60.404c1.284,1.551,2.674,3.636,3.744,6.204c1.39,3.367,1.979,6.791,1.979,9.571h-3.102
		c0-2.674-0.535-5.882-1.497-8.289c-1.07-2.62-2.46-4.919-3.583-6.311v14.6h-3.315V34.896h2.513c4.332,0,9.465,2.139,9.465,12.086
		C45.327,55.004,41.103,59.014,39.124,60.404L39.124,60.404z"/>
	<polygon fill="#231F20" points="53.723,76.18 53.723,61.741 52.385,61.741 52.385,59.335 53.723,59.335 53.723,34.896 
		64.15,34.896 64.15,37.302 57.038,37.302 57.038,59.335 62.492,59.335 62.492,61.741 57.038,61.741 57.038,73.772 64.15,73.772 
		64.15,76.18 53.723,76.18 	"/>
	<polygon fill="#231F20" points="87.467,76.18 85.755,76.18 81.691,49.441 77.573,76.18 75.861,76.18 69.498,34.896 72.761,34.896 
		76.933,63.131 81.103,34.896 82.652,34.896 86.824,63.131 90.996,34.896 93.83,34.896 87.467,76.18 	"/>
	<path fill="#231F20" d="M93.069,74.786v0.524h0.266c0.281,0,0.411-0.062,0.411-0.254c0-0.196-0.134-0.271-0.418-0.271H93.069
		L93.069,74.786z M94.008,75.038c0,0.21-0.133,0.365-0.355,0.402l0.342,0.695h-0.285l-0.318-0.658h-0.321v0.658h-0.256v-1.517h0.562
		C93.798,74.619,94.008,74.753,94.008,75.038L94.008,75.038z M94.174,74.577c-0.226-0.228-0.514-0.345-0.835-0.345
		c-0.314,0-0.6,0.114-0.813,0.331c-0.229,0.229-0.352,0.525-0.352,0.836c0,0.308,0.122,0.596,0.344,0.821
		c0.222,0.225,0.515,0.344,0.817,0.344c0.314,0,0.606-0.119,0.835-0.344c0.218-0.215,0.341-0.5,0.341-0.812
		C94.511,75.089,94.393,74.793,94.174,74.577L94.174,74.577z M94.285,74.465c0.248,0.247,0.381,0.58,0.381,0.935
		c0,0.362-0.133,0.688-0.384,0.933c-0.264,0.255-0.596,0.396-0.943,0.396c-0.351,0-0.681-0.141-0.935-0.396
		c-0.252-0.253-0.389-0.581-0.389-0.933c0-0.351,0.141-0.688,0.399-0.946c0.243-0.247,0.564-0.38,0.924-0.38
		C93.701,74.073,94.03,74.21,94.285,74.465L94.285,74.465z"/>
	<path fill="#231F20" d="M15.318,13.078l-0.421,3.24h0.843L15.318,13.078L15.318,13.078z M16.04,18.545l-0.19-1.375h-1.063
		l-0.181,1.375h-0.943l1.174-7.745h1.023l1.174,7.745H16.04L16.04,18.545z"/>
	<polygon fill="#231F20" points="27.901,18.545 27.901,14.412 27.219,16.448 26.757,16.448 26.075,14.412 26.075,18.545 
		25.052,18.545 25.052,10.8 25.563,10.8 26.988,14.833 28.422,10.8 28.934,10.8 28.934,18.545 27.901,18.545 	"/>
	<polygon fill="#231F20" points="37.384,18.545 37.384,15.997 37.053,15.997 37.053,15.145 37.384,15.145 37.384,10.8 39.933,10.8 
		39.933,11.653 38.448,11.653 38.448,15.145 39.621,15.145 39.621,15.997 38.448,15.997 38.448,17.692 39.933,17.692 39.933,18.545 
		37.384,18.545 	"/>
	<path fill="#231F20" d="M49.064,11.663v3.411c0.221-0.03,0.903-0.612,0.903-1.926C49.967,11.994,49.536,11.663,49.064,11.663
		L49.064,11.663z M49.927,15.605c0.23,0.281,0.521,0.703,0.722,1.204c0.25,0.602,0.321,1.204,0.321,1.736h-1.043
		c0-0.441-0.07-0.933-0.241-1.365c-0.181-0.451-0.432-0.833-0.623-1.043v2.408H48V10.8h0.833c1.124,0,2.197,0.582,2.197,2.337
		C51.031,14.643,50.278,15.365,49.927,15.605L49.927,15.605z"/>
	<polygon fill="#231F20" points="59.249,18.545 59.249,10.8 60.313,10.8 60.313,18.545 59.249,18.545 	"/>
	<path fill="#231F20" d="M70.719,18.596c-0.803,0-2.127-0.331-2.127-3.933c0-3.602,1.324-3.913,2.127-3.913
		c0.301,0,0.521,0.07,0.521,0.07v0.833c-0.11-0.02-0.221-0.05-0.361-0.05c-0.461,0-1.214,0.331-1.214,3.06
		c0,2.749,0.763,3.08,1.234,3.08c0.13,0,0.23-0.02,0.341-0.04v0.823C71.24,18.525,71.02,18.596,70.719,18.596L70.719,18.596z"/>
	<path fill="#231F20" d="M80.832,13.078l-0.421,3.24h0.843L80.832,13.078L80.832,13.078z M81.555,18.545l-0.19-1.375h-1.063
		l-0.181,1.375h-0.943l1.175-7.745h1.022l1.174,7.745H81.555L81.555,18.545z"/>
	<polygon fill="#231F20" points="93.325,18.545 91.59,14.131 91.59,18.545 90.566,18.545 90.566,10.8 91.078,10.8 92.804,15.245 
		92.804,10.8 93.837,10.8 93.837,18.545 93.325,18.545 	"/>
	<path fill="#231F20" d="M16.22,92.959c0.555,0,1.013,0.197,1.326,0.569c0.301,0.358,0.463,0.87,0.466,1.479
		c0.003,0.413-0.067,1.182-0.573,1.69c-0.303,0.305-0.711,0.459-1.212,0.459c-0.59,0-1.069-0.226-1.386-0.654
		c-0.271-0.367-0.42-0.88-0.42-1.444c0-0.598,0.148-1.107,0.427-1.474C15.164,93.169,15.625,92.959,16.22,92.959L16.22,92.959z
		 M18.027,93.075c-0.456-0.443-1.098-0.688-1.808-0.688c-0.676,0-1.297,0.223-1.749,0.627c-0.528,0.472-0.807,1.176-0.807,2.036
		c0,0.78,0.238,1.444,0.688,1.924c0.456,0.484,1.094,0.74,1.847,0.74c1.562,0,2.571-1.065,2.571-2.714
		C18.769,94.213,18.512,93.548,18.027,93.075L18.027,93.075z"/>
	<path fill="#231F20" d="M21.369,92.595c-0.024-0.003-0.049-0.007-0.077-0.011c-0.094-0.015-0.21-0.032-0.339-0.032
		c-0.861,0-0.878,0.679-0.886,0.971l-0.007,0.672h-0.564v0.5h0.564v2.892h0.579v-2.892h0.636v-0.5h-0.636v-0.571
		c0-0.247,0-0.585,0.414-0.585c0.063,0,0.168,0.01,0.312,0.028l0.016,0.002v-0.473L21.369,92.595L21.369,92.595z"/>
	<path fill="#231F20" d="M23.708,92.595c-0.024-0.003-0.05-0.007-0.077-0.011c-0.094-0.015-0.21-0.032-0.339-0.032
		c-0.861,0-0.878,0.679-0.885,0.971l-0.007,0.672h-0.564v0.5h0.564v2.892h0.579v-2.892h0.635v-0.5h-0.635v-0.571
		c0-0.247,0-0.585,0.414-0.585c0.063,0,0.168,0.01,0.312,0.028l0.016,0.002v-0.473L23.708,92.595L23.708,92.595z"/>
	<polygon fill="#231F20" points="24.43,97.586 25.008,97.586 25.008,94.194 24.43,94.194 24.43,97.586 	"/>
	<polygon fill="#231F20" points="24.43,92.517 24.43,93.202 25.008,93.202 25.008,92.517 24.43,92.517 	"/>
	<path fill="#231F20" d="M28.568,96.284l-0.002,0.015c-0.034,0.252-0.125,0.923-0.936,0.923c-0.356,0-0.641-0.153-0.823-0.443
		c-0.143-0.218-0.219-0.528-0.219-0.898c0-0.406,0.098-1.35,1.006-1.35c0.697,0,0.856,0.53,0.893,0.759l0.002,0.013l0.642-0.058
		l0.017-0.001l-0.004-0.017c-0.243-1.028-1.18-1.14-1.571-1.14c-0.525,0-0.956,0.192-1.246,0.558
		c-0.256,0.321-0.397,0.775-0.397,1.277c0,0.463,0.135,0.887,0.379,1.195c0.296,0.372,0.75,0.569,1.313,0.569
		c0.653,0,1.121-0.253,1.391-0.751c0.129-0.236,0.169-0.416,0.194-0.575l0.002-0.016L28.568,96.284L28.568,96.284z"/>
	<polygon fill="#231F20" points="30.074,97.586 30.653,97.586 30.653,94.194 30.074,94.194 30.074,97.586 	"/>
	<polygon fill="#231F20" points="30.074,92.517 30.074,93.202 30.653,93.202 30.653,92.517 30.074,92.517 	"/>
	<path fill="#231F20" d="M32.808,97.172c-0.458,0-0.621-0.262-0.621-0.485c0-0.216,0.086-0.455,0.724-0.593
		c0.303-0.065,0.561-0.106,0.767-0.139c0.035-0.006,0.068-0.011,0.101-0.016c0,0.468-0.007,0.551-0.092,0.733
		C33.536,96.994,33.224,97.172,32.808,97.172L32.808,97.172z M34.78,97.052c-0.052,0.022-0.116,0.034-0.18,0.034
		c-0.218,0-0.221-0.143-0.228-0.457l0-1.106c0.007-0.431,0.014-0.837-0.37-1.146c-0.272-0.213-0.692-0.289-0.994-0.289
		c-0.548,0-0.966,0.216-1.177,0.607c-0.1,0.187-0.12,0.358-0.134,0.482l-0.005,0.045l0.615,0.037l0.015,0.001v-0.016
		c0-0.171,0-0.693,0.707-0.693c0.742,0,0.742,0.577,0.742,0.922v0.071l-0.522,0.043c-1.082,0.084-1.399,0.35-1.568,0.599
		c-0.099,0.149-0.152,0.328-0.152,0.515c0,0.567,0.487,0.979,1.157,0.979c0.624,0,0.975-0.353,1.147-0.533
		c0.055,0.325,0.25,0.483,0.596,0.483c0.136,0,0.228-0.023,0.309-0.045c0.018-0.004,0.035-0.009,0.052-0.013l0.011-0.003v-0.525
		L34.78,97.052L34.78,97.052z"/>
	<polygon fill="#231F20" points="35.582,92.517 35.582,97.586 36.161,97.586 36.161,92.517 35.582,92.517 	"/>
	<path fill="#231F20" d="M43.306,94.853c-0.173-0.074-0.351-0.117-0.644-0.187c-0.047-0.012-0.097-0.023-0.15-0.036l-0.557-0.143
		c-0.438-0.101-0.981-0.226-0.981-0.771c0-0.359,0.296-0.778,1.128-0.778c0.376,0,0.668,0.079,0.891,0.24
		c0.376,0.277,0.395,0.675,0.401,0.824l0.001,0.015l0.709-0.045L44.1,93.956c-0.042-0.264-0.132-0.813-0.655-1.194
		c-0.457-0.335-0.998-0.374-1.365-0.374c-0.211,0-0.854,0-1.359,0.432c-0.214,0.183-0.469,0.502-0.469,0.989
		c0,1.076,1.134,1.311,1.811,1.449l0.422,0.086c0.457,0.093,0.945,0.241,0.945,0.828c0,0.604-0.488,0.992-1.243,0.992
		c-0.429,0-0.773-0.111-1.025-0.332c-0.378-0.335-0.395-0.773-0.402-0.96l0-0.017l-0.737,0.096l-0.013,0.001l0,0.014
		c0.049,0.715,0.368,1.221,0.947,1.504c0.333,0.162,0.738,0.245,1.202,0.245c0.57,0,1.021-0.117,1.379-0.359
		c0.424-0.29,0.648-0.717,0.648-1.233C44.186,95.784,44.072,95.17,43.306,94.853L43.306,94.853z"/>
	<path fill="#231F20" d="M47.415,94.194v1.699c0,0.397,0,0.659-0.204,0.898c-0.158,0.197-0.437,0.315-0.746,0.315
		c-0.22,0-0.598-0.067-0.657-0.516c-0.014-0.086-0.014-0.114-0.014-0.463v-1.935h-0.593v1.985c0,0.574,0,0.862,0.246,1.144
		c0.132,0.159,0.384,0.349,0.832,0.349c0.659,0,1.001-0.396,1.135-0.571v0.485h0.593v-3.392H47.415L47.415,94.194z"/>
	<path fill="#231F20" d="M51.81,95.887c0,0.752-0.366,1.05-0.479,1.123c-0.153,0.098-0.35,0.147-0.584,0.147
		c-0.649,0-1.036-0.453-1.036-1.214c0-0.775,0.392-1.271,1.021-1.292c0.018-0.001,0.036-0.002,0.054-0.002
		C51.408,94.649,51.81,95.136,51.81,95.887L51.81,95.887z M51.937,94.532c-0.274-0.283-0.654-0.445-1.041-0.445
		c-0.299,0-0.649,0.11-0.894,0.281c-0.115,0.078-0.18,0.153-0.263,0.248c-0.009,0.011-0.019,0.021-0.028,0.032v-0.454h-0.593v4.984
		h0.593v-1.967c0.272,0.314,0.649,0.475,1.121,0.475c0.967,0,1.592-0.704,1.592-1.793C52.424,95.332,52.255,94.861,51.937,94.532
		L51.937,94.532z"/>
	<path fill="#231F20" d="M56.046,95.887c0,0.752-0.367,1.05-0.479,1.123c-0.153,0.098-0.35,0.147-0.585,0.147
		c-0.648,0-1.035-0.453-1.035-1.214c0-0.775,0.391-1.271,1.021-1.292c0.019-0.001,0.037-0.002,0.055-0.002
		C55.644,94.649,56.046,95.136,56.046,95.887L56.046,95.887z M56.173,94.532c-0.275-0.283-0.654-0.445-1.041-0.445
		c-0.299,0-0.65,0.11-0.894,0.281c-0.115,0.078-0.181,0.153-0.264,0.249c-0.009,0.01-0.018,0.021-0.027,0.031v-0.454h-0.593v4.984
		h0.593v-1.967c0.272,0.314,0.649,0.475,1.121,0.475c0.967,0,1.592-0.704,1.592-1.793C56.66,95.332,56.492,94.861,56.173,94.532
		L56.173,94.532z"/>
	<polygon fill="#231F20" points="57.604,92.517 57.604,97.586 58.184,97.586 58.184,92.517 57.604,92.517 	"/>
	<polygon fill="#231F20" points="59.295,97.586 59.873,97.586 59.873,94.194 59.295,94.194 59.295,97.586 	"/>
	<polygon fill="#231F20" points="59.295,92.517 59.295,93.202 59.873,93.202 59.873,92.517 59.295,92.517 	"/>
	<path fill="#231F20" d="M61.455,95.558c0.063-0.611,0.432-1.007,0.94-1.007c0.834,0,0.937,0.85,0.948,1.007H61.455L61.455,95.558z
		 M63.404,96.443l-0.013-0.001l-0.004,0.013c-0.149,0.673-0.613,0.773-0.878,0.773c-0.299,0-0.546-0.098-0.732-0.29
		c-0.219-0.224-0.345-0.576-0.338-0.944h2.556v-0.015c0-0.141,0-0.401-0.064-0.689c-0.209-0.887-0.907-1.203-1.492-1.203
		c-0.401,0-0.799,0.147-1.091,0.405c-0.36,0.318-0.551,0.79-0.551,1.365c0,1.128,0.637,1.829,1.663,1.829
		c0.758,0,1.273-0.384,1.532-1.14L64,96.524L63.404,96.443L63.404,96.443z"/>
	<path fill="#231F20" d="M66.662,94.151c-0.225,0.007-0.808,0.025-1.137,0.613v-0.57h-0.601v3.392h0.601v-1.611
		c0-0.291-0.001-0.566,0.141-0.802c0.153-0.253,0.426-0.393,0.766-0.393c0.091,0,0.159,0.006,0.234,0.014l0.016,0.002V94.15
		L66.662,94.151L66.662,94.151z"/>
	<path fill="#231F20" d="M71.729,94.694v-0.5h-0.613v-1.063h-0.615v1.063h-0.535v0.5h0.535v2.171
		c-0.004,0.259-0.007,0.483,0.132,0.625c0.104,0.104,0.272,0.152,0.533,0.152c0.179,0,0.373-0.029,0.489-0.047
		c0.024-0.004,0.045-0.007,0.062-0.01l0.012-0.001v-0.504l-0.019,0.006c-0.106,0.033-0.26,0.077-0.367,0.077
		c-0.228,0-0.228-0.162-0.228-0.557v-1.913H71.729L71.729,94.694z"/>
	<path fill="#231F20" d="M74.975,95.887c-0.024,1.143-0.646,1.313-1.014,1.313c-0.645,0-1.014-0.466-1.014-1.278
		c0-1.174,0.662-1.349,1.057-1.349c0.288,0,0.793,0.109,0.936,0.845C74.959,95.512,74.981,95.669,74.975,95.887L74.975,95.887z
		 M75.13,94.526c-0.285-0.288-0.68-0.439-1.141-0.439c-0.591,0-1.042,0.213-1.341,0.632c-0.224,0.314-0.352,0.75-0.352,1.196
		c0,0.817,0.438,1.771,1.671,1.771c0.983,0,1.649-0.724,1.657-1.8C75.629,95.335,75.453,94.852,75.13,94.526L75.13,94.526z"/>
	<polygon fill="#231F20" points="83.49,92.517 81.943,96.624 80.407,92.525 80.404,92.517 79.516,92.517 79.516,97.586 
		80.202,97.586 80.132,93.493 81.666,97.577 81.669,97.586 82.211,97.586 83.776,93.43 83.686,97.571 83.686,97.586 84.378,97.586 
		84.378,92.517 83.49,92.517 	"/>
	<path fill="#231F20" d="M86.064,95.558c0.063-0.611,0.432-1.007,0.94-1.007c0.834,0,0.937,0.85,0.948,1.007H86.064L86.064,95.558z
		 M88.014,96.443L88,96.442l-0.003,0.013c-0.149,0.673-0.614,0.773-0.878,0.773c-0.299,0-0.546-0.098-0.733-0.29
		c-0.218-0.224-0.344-0.576-0.338-0.944h2.557v-0.015c0-0.141,0-0.401-0.065-0.689c-0.208-0.887-0.906-1.203-1.491-1.203
		c-0.401,0-0.8,0.147-1.092,0.405c-0.36,0.318-0.551,0.79-0.551,1.365c0,1.128,0.638,1.829,1.664,1.829
		c0.758,0,1.273-0.384,1.532-1.14l0.008-0.022L88.014,96.443L88.014,96.443z"/>
	<path fill="#231F20" d="M92.29,94.868c-0.17-0.576-0.71-0.781-1.12-0.781c-0.209,0-0.72,0.056-1.035,0.562v-0.455h-0.601v3.392
		h0.601V95.65c0-0.246,0-0.501,0.245-0.746c0.17-0.17,0.378-0.253,0.633-0.253c0.273,0,0.604,0.119,0.707,0.454
		c0.035,0.112,0.035,0.214,0.035,0.553v1.928h0.593v-2.021C92.348,95.278,92.348,95.07,92.29,94.868L92.29,94.868z"/>
	<polygon fill="#231F20" points="92.017,92.643 92.329,92.643 92.329,93.471 92.527,93.471 92.527,92.643 92.835,92.643 
		92.835,92.471 92.017,92.471 92.017,92.643 	"/>
	<polygon fill="#231F20" points="93.602,92.471 93.376,93.202 93.146,92.48 93.144,92.471 92.888,92.471 92.888,93.471 
		93.08,93.471 93.074,92.855 93.069,92.779 93.28,93.46 93.283,93.471 93.456,93.471 93.659,92.825 93.672,92.78 93.668,92.856 
		93.663,93.456 93.663,93.471 93.858,93.471 93.858,92.471 93.602,92.471 	"/>
	<polygon fill="#231F20" points="93.848,26.801 13.659,26.801 13.659,26.641 93.848,26.641 93.848,26.801 	"/>
	<polygon fill="#231F20" points="93.848,84.436 13.659,84.436 13.659,84.275 93.848,84.275 93.848,84.436 	"/>
</g>
<g>
</g>
<g>
</g>
<g>
</g>
<g>
</g>
<g>
</g>
<g>
</g>
</svg>
